<?xml version='1.0' ?>
<svg xmlns="http://www.w3.org/2000/svg" xmlns:xlink="http://www.w3.org/1999/xlink" version="1.1" width="357.55339079327376" height="248.94897447831787">
  <style type="text/css">.edge {
  fill: None;
}
.edge.visible {
  stroke: #000000;
}
.edge.hidden {
  stroke: #C8C8FF;
}
</style>
  <g>
    <path class="edge sharp hidden" d="M231.80970398562795,149.9900053931504 L214.13203445596426,160.19621265474697 M249.48737351529164,139.78379813155382 L231.80970398562795,149.9900053931504 M249.48737351529164,124.47448723915895 L249.48737351529164,139.7837981315538 M231.80970398562795,149.9900053931504 C229.84471726931054,151.12605504973897 227.33462602495433,152.18886768821295 224.3159836775504,152.96569453346495 C222.80973233114207,153.353781047013 221.18175583659144,153.66893032840204 219.46829006418974,153.88491364397206 C217.75555540726137,154.10122260177505 215.95776382467628,154.21779273525263 214.13203445596426,154.21755486129442 M235.66778176041663,132.4532322589268 C237.15340692093045,133.90403835892974 238.21753386865538,135.54599509777853 238.73873201433906,137.23360629101376 C239.26644628437862,138.92099265937335 239.2510542603529,140.64653336754108 238.76182318164103,142.25857134193927 C238.27677049958112,143.87301303085582 237.3275916406542,145.37050268775712 236.1028805212864,146.67054683646816 C234.8781392749068,147.97330572611816 233.3856946909022,149.08060200138223 231.80970398562795,149.9900053931504 M236.22912136804388,132.12914268535636 L249.48737351529164,139.78379813155382 M249.48737351529164,149.9900053931504 L249.48737351529164,139.78379813155382 M249.48737351529164,149.99000539315037 L249.48737351529164,165.29931628554525 M249.48737351529164,165.29931628554525 L355.55339069327374,226.53655985512472 M249.48737351529164,165.29931628554525 L214.13203445596426,185.71173080873842 M249.48737351529164,149.9900053931504 L231.80970398562795,160.19621265474697 M231.80970398562795,160.19621265474697 L214.13203445596426,170.40241991634355 M222.9708692207961,144.88690176235212 C224.5161865878092,143.99665206501936 225.64441940738013,142.86798028559542 226.20607621220535,141.65165889165797 C226.77303237733474,140.43615731161236 226.77341252771853,139.1330061170531 226.2061072845776,137.91593256453706 M214.13203445596426,147.00067649642415 C215.76861557715287,147.0011433618639 217.4045131500055,146.8132331461092 218.9155751590468,146.45132127295355 C220.4273070629762,146.09034313067787 221.81420340309475,145.55536333100113 222.97086922079612,144.88690176235212 M231.80970398562795,139.78379813155382 L249.48737351529164,149.9900053931504 M231.80970398562795,139.78379813155382 L231.80970398562795,129.57759086995722 M231.80970398562795,160.19621265474697 C229.9456029784322,161.27364009067642 227.5939971396588,162.28474980833732 224.77960351871786,163.0492201864664 C221.9745663090195,163.81454916656233 218.70195743947406,164.32147490756952 215.2608583873605,164.40904091951745 C211.82504131489839,164.50269543272842 208.24315772551185,164.16740145406868 204.9769139106666,163.42111068151084 C201.70445916841058,162.68095590976657 198.77214472431055,161.53933623634296 196.45436492630057,160.19621265474697 M189.13203445596426,149.9900053931504 C189.13167413575846,148.97229037934216 189.31980621053452,147.90831455299062 189.73672115839534,146.8346560140031 C190.15254370819443,145.76143219542712 190.79848798297527,144.67914300272275 191.6839791543219,143.63692705336354 C192.56796398952943,142.59473162359873 193.69188496763027,141.59374504875393 195.02217110016565,140.68385827555997 C196.3511166734041,139.77346697876843 197.88532882092966,138.95524946182127 199.55285928800348,138.26471006748918 C201.21979387895547,137.57332452102045 203.0180126690381,137.0099819438207 204.8586779424662,136.58596546764576 C206.69964693704065,136.16112606060696 208.5813063574463,135.8751587777375 210.42380913146152,135.71591388741032 C212.2671971931625,135.55615257474855 214.07071517035186,135.52228328955056 215.7799717158135,135.58764097166733 C217.49022341398938,135.6528472648509 219.10644032475167,135.81656848832446 220.60251058352722,136.04806699752024 C222.46938940080523,136.33670035268707 224.40891469096692,136.77154885683126 226.3198888750488,137.38767485922133 C228.2293024212643,138.0026032518319 230.10821761092387,138.80084309446238 231.80970398562795,139.7837981315538 M231.80970398562795,139.7837981315538 C234.13606226979587,141.12196892185705 236.11340554708602,142.81494145550695 237.3953912172115,144.70429408185933 C238.0386517240365,145.64729823578773 238.51134237009148,146.6355083514187 238.79739630799548,147.63629026536043 C239.08430505999965,148.63706220866334 239.18460678635367,149.64984168664796 239.10653658377265,150.6417321938097 C238.95486780206247,152.6284516578557 238.07684666297368,154.51789326964004 236.7512579849427,156.13738225774634 C235.42715644914156,157.76227317240196 233.67586304612658,159.11997343644597 231.80970398562795,160.19621265474697 M222.97086922079612,134.68069450075552 C221.8143989089834,134.01221059242826 220.42777301696842,133.47697020676634 218.9155798069753,133.11606657367577 C217.40405900261516,132.7541845303492 215.76840534562746,132.5666392395939 214.1320344559643,132.56712844471187 C212.4956635663011,132.56663923959374 210.86000990931342,132.75418453034925 209.3484891049531,133.11606657367562 C207.8362958949602,133.47697020676642 206.449670002945,134.01221059242837 205.29319969113243,134.68069450075555 M231.80970398562795,139.78379813155382 L222.97086922079578,144.8869017623523 M222.9708692207961,144.8869017623521 C224.12871731406102,145.55459020818688 225.0557808562904,146.35515904020716 225.68088428543956,147.22822419706338 C226.30768237082793,148.10090114034648 226.6325203431365,149.0452462195093 226.63167301501687,149.9900053931504 C226.63252034313652,150.93476456679142 226.30768237082782,151.87910964595437 225.6808842854396,152.75178658923735 C225.0557808562903,153.62485174609375 224.12871731406096,154.4254205781139 222.97086922079612,155.09310902394873 M222.97086922079612,155.0931090239487 C221.81439890898298,155.76159293227568 220.42777301696844,156.29683331793782 218.91557980697516,156.65773695102843 C217.404059002615,157.019618994355 215.76840534562746,157.2071642851104 214.13203445596426,157.2066750799924 C212.49566356630115,157.20716428511034 210.86000990931345,157.01961899435517 209.3484891049532,156.65773695102848 C207.83629589495993,156.29683331793785 206.44967000294517,155.76159293227593 205.2931996911324,155.09310902394867 M205.29319969113274,155.0931090239485 L196.45436492630057,160.19621265474697 M205.29319969113243,155.0931090239487 C204.13552462794334,154.42542810811406 203.20920071201556,153.62494879705577 202.58370242878433,152.75186900873393 C201.95662491850337,151.87918721740772 201.63111071431751,150.93476085643576 201.63193146364995,149.9899570426033 C201.63100194808527,149.04514927000082 201.9564053982603,148.10081972788467 202.58350960919165,147.22819913743152 C203.2090045801468,146.3551927447247 204.13560651744828,145.5546653988952 205.29331610681305,144.8869689749766 C206.44980023707154,144.21856503191356 207.83635427289738,143.683591153981 209.34844570039746,143.32246146412314 C210.85986889879317,142.96040267913202 212.49549564482646,142.77253090957825 214.1319507103601,142.77306756563974 C215.7683989191023,142.77259370579154 217.4041933603136,142.96052941920345 218.91572256173072,143.32257278856687 C220.4279411141658,143.68370439076827 221.81441195132678,144.2185177529858 222.9708692207961,144.88690176235212 M214.13203445596426,160.19621265474697 L222.97086922079612,155.09310902394867 M37.35533915932737,42.82482914638632 L2.000000099999994,63.23724366957947 M37.35533915932737,2.000000099999994 L37.35533915932737,42.82482914638632 M37.35533915932737,42.82482914638632 L143.4213563373095,104.06207271596578 M143.4213563373095,104.06207271596578 L125.74368680764582,114.26827997756236 M125.74368680764582,114.26827997756236 L108.06601727798213,124.47448723915893 M143.4213563373095,63.237243669579485 L143.4213563373095,78.54655456197435 M143.4213563373095,78.54655456197435 L143.4213563373095,88.75276182357092 M143.4213563373095,88.75276182357092 L143.4213563373095,104.06207271596578 M143.4213563373095,78.54655456197435 L125.74368680764582,88.75276182357092 M125.74368680764582,88.75276182357092 L108.06601727798213,98.9589690851675 M125.74368680764582,98.9589690851675 L116.90485204281397,104.06207271596578 M143.4213563373095,88.75276182357092 L125.74368680764582,98.9589690851675 M161.0990258669732,114.26827997756237 C158.7812460689633,112.92515639596644 155.84893162486313,111.78353672254275 152.57647688260712,111.04338195079853 C149.3102330677619,110.29709117824056 145.7283494783754,109.96179719958101 142.29253240591325,110.05545171279186 C138.85143335379962,110.1430177247399 135.5788244842543,110.64994346574706 132.77378727455587,111.41527244584293 C129.95939365361497,112.17974282397203 127.60778781484152,113.19085254163288 125.74368680764582,114.26827997756237 M161.0990258669732,114.26827997756237 L143.4213563373095,104.0620727159658 M125.74368680764582,114.26827997756237 C123.87752774714724,115.3445191958634 122.12623434413213,116.70221945990733 120.80213280833107,118.327110374563 C119.47654413030013,119.9465993626693 118.59852299121127,121.83604097445372 118.44685420950107,123.82276043849961 C118.36878400692012,124.81465094566146 118.46908573327406,125.82743042364596 118.75599448527822,126.82820236694887 C119.04204842318246,127.82898428089074 119.51473906923721,128.8171943965216 120.15799957606221,129.76019855045 C121.43998524618779,131.6495511768024 123.41732852347786,133.34252371045224 125.74368680764579,134.68069450075552 M161.0990258669732,88.75276182357092 L143.4213563373095,78.54655456197435 M161.0990258669732,73.44345093117606 L161.0990258669732,88.75276182357065 M161.0990258669732,98.9589690851678 L161.0990258669732,114.26827997756237 M161.0990258669732,98.9589690851675 L143.4213563373095,88.75276182357092 M168.42135059331133,98.9589657508791 C168.421904616539,97.6441067839897 168.10824078685872,96.38397855082762 167.5715368856404,95.2276253323498 C167.02161693385042,94.0394905230137 166.1726731601681,92.82417059748929 164.98576800901537,91.65655479056365 C163.94473987401489,90.63100205383267 162.64300062753082,89.64366444507259 161.09902586697316,88.75276182357092 M161.09902586697316,104.06207271596578 L155.49542916592287,100.82683465218427 M155.49542916592287,100.82683465218427 C156.06273440906335,99.60976109966839 156.06235425868022,98.30660990510887 155.49539809355053,97.09110832506342 C154.9337412887255,95.87478693112578 153.80550846915412,94.74611515170224 152.2601911021413,93.85586545436924 M152.26019110214136,93.85586545436921 C151.10372079032868,93.18738154604186 149.7170948983137,92.65214116038007 148.2049016883205,92.29123752728934 C146.6933808839604,91.9293554839629 145.05772722697253,91.74181019320748 143.42135633730956,91.74229939832549 C141.78498544764645,91.74181019320758 140.1493317906587,91.92935548396282 138.63781098629855,92.29123752728938 C137.1256177763052,92.65214116038008 135.73899188429039,93.18738154604199 134.58252157247765,93.85586545436922 M134.58252157247767,93.85586545436921 C133.61799378394988,94.41234402529818 132.81287857531703,95.06045317854915 132.21012750408232,95.76664607565341 C131.60659593209186,96.47258958903727 131.20562719853243,97.23618826547596 131.02822545534184,98.01694365046464 C130.84998682508098,98.79763829738401 130.89535706576416,99.59511334554064 131.16181410696046,100.36720080262486 C131.42745138436192,101.13939166409429 131.91406052239392,101.88587090066464 132.5960726799649,102.56739697094902 C133.95452456245008,103.93338230708567 136.11366016956333,105.02667551440973 138.6378290483799,105.62654724350274 C141.15712645870005,106.23347800224381 144.02272430051147,106.34163645495131 146.656594401091,105.92993828298258 M146.656594401091,105.92993828298256 L156.1182690413207,111.39263868350383 M166.80671506617125,104.06207292321284 C166.3238667406013,103.31956710091458 165.71688438535764,102.5864634744166 164.98576800044088,101.86276204371893 C163.94473986688214,100.8372093100112 162.64300062329596,99.8498717042298 161.0990258669732,98.95896908516751 M155.49542916592287,111.03304191378085 L156.1182690413207,111.39263868350383 M134.58252157247767,104.06207271596578 C136.50697891423167,102.94519883455938 139.08232740994842,102.21163995955833 141.789720422382,102.00999889595775 C144.49521895128615,101.80083826153204 147.31190492858903,102.12436919086767 149.67133677093148,102.91519591314209 C152.0372927755142,103.69949847317604 153.93093215816933,104.9460759971598 154.9699404709827,106.40340557882465 C155.49246005224558,107.13077104845914 155.8065067949521,107.90781660367995 155.89519813784972,108.69340617768378 C155.98478138686656,109.47898641316397 155.84881015435803,110.27268214552105 155.49542916592287,111.03304191378085 M131.7286752695273,111.71672551325926 C130.87988673979578,110.42672876757257 130.69451986645424,108.99504766908667 131.20130130134254,107.6465288082554 C131.7003990917984,106.29705506238734 132.88961097960168,105.03619976181734 134.5825215724777,104.06207271596581 M168.4213563373095,124.47448723915893 C168.42152483162621,123.13373907365605 168.09730452618874,121.8751597701543 167.5695019945362,120.73875610512539 C167.06957435862802,119.66091311742545 166.31639465585528,118.54112766905061 165.2492331158512,117.4378262094565 C164.18414589683337,116.33542578455481 162.80155393277124,115.25063359402019 161.0990258669732,114.26827997756237 M161.0990258669732,114.26827997756237 L125.74368680764582,134.68069450075552 M161.0990258669732,104.06207271596578 L147.84077371972543,96.40741726976835 M155.49542916592287,100.82683465218429 C153.51516739388185,99.68352998503045 151.57183311399262,98.56154541541099 149.9071651659324,97.6004489274871 C149.15510208256484,97.16624510385724 148.46630493382924,96.76856788461774 147.84077371972543,96.40741726976836 M143.4213563373095,88.75276182357092 L134.58252157247767,93.85586545436921 M147.8407737197254,96.40741726976836 C147.842164366448,97.12886648665324 147.80602580582587,97.94502695915259 147.732358037859,98.8558986872661 C147.56922220572963,100.87231693852544 147.18965505917936,103.33549658980137 146.65659440109098,105.92993828298256 M161.0990258669732,124.47448723915895 L147.84077371972543,116.81983179296151 M155.49542916592287,111.03304191378086 Q154.99900701388287,111.47330925964079 154.50790405516054,111.89584752333514 M147.84077371972543,116.81983179296151 C147.84216436644795,116.82063468322109 147.8060258058259,116.79977007551787 147.73235803785903,116.75723796985156 C147.56922220572977,116.6630514532573 147.18965505917924,116.4439082590207 146.656594401091,116.13614554457914" />
    <path class="edge outline hidden" d="M214.13203445596426,160.19621265474697 L205.2931996911324,155.0931090239487 M143.4213563373095,88.75276182357092 L152.26019110214136,93.85586545436921 M143.4213563373095,119.37138360836065 L134.58252157247765,114.26827997756236 M143.4213563373095,119.37138360836065 L147.84077371972543,116.8198317929615" />
    <path class="edge sharp visible" d="M214.13203445596426,144.8869017623521 L214.13203445596426,160.19621265474697 M249.48737351529164,124.47448723915895 L214.13203445596426,144.8869017623521 M214.13203445596426,170.40241991634355 L214.13203445596426,160.19621265474697 M214.13203445596426,170.40241991634355 L214.13203445596426,185.71173080873842 M214.13203445596426,185.71173080873842 L320.1980516339464,246.94897437831787 M320.1980516339464,206.12414533193157 L320.1980516339464,246.94897437831787 M214.13203445596426,144.8869017623521 L320.1980516339464,206.12414533193157 M214.13203445596426,154.21755486129445 C210.85860458827383,154.2207654206838 207.4999636143377,153.83469748885378 204.4452832396168,153.09002287629374 C201.38510646255585,152.35013795814973 198.64657159249504,151.25958876940413 196.45436492630054,149.99000539315037 M196.45436492630057,149.9900053931504 L214.13203445596426,160.19621265474697 M231.80970398562795,129.57759086995722 C233.25759129918342,130.4128525287601 234.57404166303144,131.38130382054493 235.66778176041666,132.4532322589268 M231.80970398562795,129.57759086995722 L236.22912136804388,132.12914268535636 M355.55339069327374,185.71173080873842 L355.55339069327374,226.53655985512472 M249.48737351529164,124.47448723915895 L355.55339069327374,185.71173080873842 M355.55339069327374,185.71173080873842 L320.1980516339464,206.12414533193157 M196.45436492630057,160.19621265474697 L214.13203445596426,170.40241991634355 M196.45436492630057,160.19621265474697 L196.45436492630057,149.9900053931504 M355.55339069327374,226.53655985512472 L320.1980516339464,246.94897437831787 M231.80970398562795,129.57759086995722 L222.97086922079578,134.6806945007557 M226.20610728457763,137.91593256453706 C225.64386173902415,136.69846557982257 224.5159469250912,135.57055076588958 222.97086922079615,134.68069450075552 M205.2931996911324,144.88690176235212 C206.44986550883354,145.5553633310012 207.83676184895225,146.09034313067778 209.3484937528817,146.4513212729536 C210.8595557619231,146.81323314610916 212.49545333477545,147.00114336186397 214.13203445596426,147.00067649642415 M205.29319969113274,144.88690176235193 L196.45436492630057,149.9900053931504 M196.45436492630057,149.9900053931504 C194.75183686050266,149.00765177669274 193.3692448964404,147.92285958615793 192.30415767742255,146.82045916125628 C191.23699613741854,145.71715770166207 190.48381643464566,144.59737225328735 189.98388879873752,143.51952926558735 C189.45608626708494,142.3831256005584 189.13186596164758,141.1245462970567 189.13203445596423,139.7837981315538 M189.13203445596426,139.78379813155382 C189.13167413575846,138.76608311774572 189.31980621053452,137.70210729139393 189.73672115839534,136.62844875240654 C190.15254370819443,135.5552249338305 190.79848798297536,134.47293574112626 191.68397915432186,133.43071979176696 C192.56796398952943,132.38852436200227 193.69188496763027,131.38753778715727 195.02217110016565,130.47765101396345 C196.3511166734041,129.56725971717188 197.88532882092966,128.74904220022475 199.55285928800348,128.0585028058926 C201.21979387895553,127.36711725942392 203.01801266903811,126.80377468222414 204.8586779424662,126.37975820604923 C206.69964693704065,125.95491879901046 208.5813063574463,125.66895151614094 210.42380913146152,125.5097066258138 C212.26719719316253,125.34994531315206 214.07071517035195,125.31607602795395 215.7799717158135,125.38143371007077 C217.4902234139895,125.44664000325449 219.1064403247516,125.61036122672787 220.6025105835273,125.84185973592368 C222.46938940080526,126.13049309109054 224.40891469096698,126.56534159523466 226.31988887504883,127.18146759762477 C228.2293024212643,127.79639599023528 230.10821761092387,128.59463583286575 231.80970398562795,129.57759086995725 M196.45436492630057,160.19621265474697 C194.75183686050266,159.21385903828929 193.3692448964404,158.12906684775456 192.30415767742255,157.02666642285283 C191.23699613741854,155.92336496325868 190.48381643464566,154.80357951488386 189.98388879873752,153.72573652718398 C189.45608626708494,152.58933286215503 189.13186596164758,151.3307535586533 189.13203445596423,149.9900053931504 M205.29319969113243,134.68069450075552 C204.1353515978675,135.34838294659028 203.20828805563818,136.14895177861055 202.58318462648896,137.02201693546687 C201.9563865411006,137.8946938787499 201.6315485687921,138.83903895791272 201.6323958969117,139.78379813155388 C201.63154856879217,140.72855730519493 201.95638654110058,141.67290238435774 202.5831846264889,142.54557932764084 C203.2082880556383,143.41864448449712 204.13535159786727,144.2192133165173 205.29319969113246,144.88690176235215 M37.35533915932737,2.000000099999994 L2.000000099999994,22.412414623193158 M2.000000099999994,22.412414623193158 L2.000000099999994,63.23724366957947 M37.35533915932737,2.000000099999994 L143.4213563373095,63.237243669579485 M143.4213563373095,63.237243669579485 L125.74368680764583,73.44345093117605 M125.74368680764582,73.44345093117606 L108.06601727798213,83.64965819277263 M2.000000099999994,22.412414623193158 L108.06601727798213,83.64965819277263 M2.000000099999994,63.23724366957947 L108.06601727798213,124.47448723915893 M108.06601727798213,83.64965819277263 L108.06601727798213,98.9589690851675 M108.06601727798213,98.9589690851675 L108.06601727798213,109.16517634676407 M108.06601727798213,109.16517634676407 L108.06601727798213,124.47448723915893 M161.0990258669732,73.44345093117606 C158.7812460689633,72.10032734958013 155.84893162486313,70.95870767615644 152.57647688260712,70.21855290441222 C149.3102330677619,69.47226213185428 145.7283494783754,69.13696815319472 142.29253240591325,69.23062266640557 C138.85143335379962,69.31818867835358 135.5788244842543,69.82511441936077 132.77378727455587,70.59044339945662 C129.95939365361497,71.3549137775857 127.60778781484152,72.36602349524657 125.74368680764582,73.44345093117606 M161.0990258669732,73.44345093117606 L143.4213563373095,63.237243669579485 M125.74368680764582,93.85586545436921 L108.06601727798213,83.64965819277263 M125.74368680764582,73.44345093117606 C123.87752774714724,74.51969014947714 122.12623434413213,75.87739041352098 120.80213280833107,77.5022813281767 C119.47654413030013,79.12177031628298 118.59852299121127,81.01121192806738 118.44685420950107,82.9979313921133 C118.36878400692012,83.98982189927517 118.46908573327406,85.00260137725962 118.75599448527822,86.00337332056257 C119.04204842318246,87.00415523450442 119.51473906923721,87.99236535013523 120.15799957606221,88.9353695040637 C121.43998524618779,90.82472213041605 123.41732852347786,92.51769466406594 125.74368680764579,93.85586545436921 M125.74368680764582,109.16517634676407 L108.06601727798213,98.9589690851675 M125.74368680764582,93.85586545436921 L125.74368680764582,109.16517634676379 M116.90485204281397,104.06207271596578 L108.06601727798213,109.16517634676407 M125.74368680764582,134.68069450075552 L108.06601727798213,124.47448723915893 M125.74368680764582,119.37138360836094 L125.74368680764582,134.68069450075552 M125.74368680764582,119.37138360836065 L108.06601727798213,109.16517634676407 M161.0990258669732,73.44345093117606 L125.74368680764582,93.85586545436921 M164.95710296007147,106.2895345642204 C166.32051911607502,104.95617134469492 167.28479442883346,103.51311671653546 167.83587451617043,102.06442923928257 C168.2345903404973,101.02040072877396 168.42172688859642,99.97389612781066 168.4213505933113,98.95896575087907 M164.95710296007152,106.28953456422045 L161.09902586697316,104.06207271596578 M125.7436868076458,109.16517634676407 C127.28574679608914,110.05599545000477 128.99461472129497,110.80714981941316 130.76965176965865,111.407984977188 C132.7916722099161,112.09338462747614 134.89638736027257,112.58371050869394 136.95410663178575,112.90140296299106 C138.581287478333,113.15316553183011 140.32584618809068,113.3203457191287 142.14506690115965,113.37390373765432 C144.14275182996099,113.43322360892243 146.230429314014,113.35434774696161 148.32074280324295,113.1128412762684 C150.99033667298525,112.8060801983807 153.66172922055105,112.23015248431234 156.1182690413207,111.39263868350383 M156.11824218648698,111.39267216865322 C157.95329993105778,109.08341406166478 159.61859589144848,106.62566393033663 161.0990258647773,104.06207271976918 M161.09902586916908,104.06207271723358 C162.57894599534865,104.91650500046244 163.87477206493352,105.66465053056032 164.95711937772572,106.28954404295749 M125.7436868076458,93.85586545436921 C127.44517318234978,94.83882049146068 129.32408837200967,95.63706033409117 131.2335019182249,96.2519887267017 C133.1444761023067,96.86811472909172 135.08400139246854,97.30296323323593 136.9508802097465,97.59159658840277 C138.44695046852206,97.82309509759851 140.06316737928438,97.98681632107204 141.7734190774602,98.05202261425565 C143.48267562292202,98.11738029637253 145.286193600111,98.08351101117441 147.12958166181224,97.92374969851261 C148.97208443582738,97.76450480818552 150.85374385623302,97.47853752531599 152.6947128508076,97.05369811827723 C154.5353781242355,96.62968164210226 156.33359691431832,96.06633906490256 158.00053150527026,95.37495351843383 C159.6680619723441,94.68441412410162 161.2022741198696,93.86619660715459 162.53121969310806,92.955805310363 C163.86150582564363,92.04591853716911 164.98542680374442,91.04493196232418 165.86941163895187,90.0027365325595 C166.75490281029852,88.96052058320016 167.40084708507925,87.87823139049597 167.81666963487842,86.80500757191992 C168.23358458273933,85.73134903293248 168.42171665751528,84.66737320658078 168.42135633730953,83.64965819277265 M168.4213563373095,83.64965819277265 C168.4215248316263,82.30891002726979 168.09730452618868,81.05033072376796 167.5695019945362,79.91392705873909 C167.06957435862802,78.83608407103914 166.31639465585528,77.71629862266433 165.2492331158512,76.6129971630702 C164.18414589683337,75.51059673816852 162.80155393277124,74.42580454763385 161.0990258669732,73.44345093117606 M164.95710296007164,116.49574182581708 C166.32051911949435,115.16237860295982 167.28479443362892,113.71932397092127 167.8358745203146,112.27063649001924 C168.23459034180217,111.22660798311027 168.4217268885909,110.18010338588971 168.4213505933116,109.16517301247642 M168.4213505933116,109.16517301247642 C168.42190461654482,107.85031404164505 168.10824078497274,106.59018580488477 167.57153688082204,105.43383258355077 C167.36124933716093,104.97837151426063 167.1063087322774,104.52111829414804 166.80671506617128,104.06207292321285 M156.1182690413207,111.39263868350382 L164.9571029600716,116.49574182581706 M146.656594401091,116.13614554457914 C144.5493664325783,116.46380395372829 142.29332635884003,116.46375216998742 140.18612659934507,116.13612760493662 C138.07750688053608,115.8115626269842 136.12367401868806,115.16034480108142 134.5825215724776,114.26827997756233 M134.58252157247765,114.26827997756236 C133.33320698532827,113.54698786436917 132.35333191461146,112.67090543184206 131.7286752695273,111.71672551325925 M156.11826904132067,121.59884594510041 L146.656594401091,116.13614554457915 M125.7436868076458,119.37138360836065 C127.28574680032472,120.2622027140521 128.994614730682,121.01335708512883 130.76965178428458,121.61419224373964 C132.7916722259818,122.29959189345006 134.8963873774934,122.789917773903 136.95410664979772,123.10761022737206 C138.58128749765436,123.35937279566403 140.32584620867812,123.52655298224758 142.145066922838,123.58011099989059 C144.1427518511348,123.63943087013948 146.23042933430992,123.56055500719425 148.32074282234888,123.31904853566019 C150.99033668572966,123.01228745724607 153.66172922641402,122.43635974390104 156.1182690413207,121.59884594510041 M125.7436868076458,134.68069450075552 C127.44517318234982,135.66364953784694 129.3240883720096,136.46188938047752 131.2335019182249,137.07681777308798 C133.14447610230675,137.69294377547803 135.0840013924685,138.12779227962224 136.9508802097465,138.41642563478908 C138.44695046852206,138.64792414398474 140.06316737928438,138.81164536745845 141.7734190774602,138.87685166064196 C143.4826756229219,138.94220934275882 145.2861936001111,138.90834005756062 147.12958166181227,138.74857874489896 C148.9720844358274,138.58933385457172 150.85374385623308,138.30336657170236 152.69471285080763,137.8785271646635 C154.53537812423545,137.4545106884885 156.33359691431838,136.8911681112889 158.00053150527023,136.19978256482008 C159.6680619723441,135.50924317048793 161.20227411986951,134.6910256535409 162.53121969310806,133.7806343567493 C163.86150582564355,132.87074758355544 164.98542680374433,131.86976100871047 165.86941163895185,130.82756557894578 C166.75490281029846,129.78534962958636 167.40084708507914,128.70306043688228 167.81666963487845,127.62983661830623 C168.23358458273913,126.55617807931877 168.4217166575153,125.49220225296705 168.42135633730953,124.47448723915893 M161.09902586864843,124.47448723625733 C162.57894599455892,121.91060166679033 163.87477206463691,119.23953799459507 164.95711937772575,116.49570231475919 M156.11824218648698,121.59883044045492 Q158.8746048540625,123.19021716856395 161.09902586477554,124.47448723789013 M154.5079040551605,111.89584752333512 C152.87494530804003,113.30213683766532 151.29350534412356,114.54332687162459 149.90716516571845,115.50159496775456 C149.1551020824588,116.02087497202515 148.46630493379436,116.46028724709399 147.8407737197254,116.81983179296152" />
    <path class="edge outline visible" d="M189.13203445596426,139.78379813155382 L189.13203445596426,149.9900053931504 M214.13203445596426,129.57759086995725 L222.97086922079612,134.68069450075552 M214.13203445596426,129.57759086995725 L205.2931996911324,134.68069450075555 M168.4213563373095,98.9589690851675 L168.4213563373095,83.64965819277262 M168.4213563373095,124.47448723915895 L168.4213563373095,109.16517634676407" />
  </g>
</svg>
